<?xml version="1.0" standalone="no"?>
<!DOCTYPE svg PUBLIC "-//W3C//DTD SVG 20010904//EN"
 "http://www.w3.org/TR/2001/REC-SVG-20010904/DTD/svg10.dtd">
<svg version="1.0" xmlns="http://www.w3.org/2000/svg"
 width="1720.000000pt" height="1720.000000pt" viewBox="0 0 1720.000000 1720.000000"
 preserveAspectRatio="xMidYMid meet">
<metadata>
Created by potrace 1.11, written by Peter Selinger 2001-2013
</metadata>
<g transform="translate(0.000000,1720.000000) scale(0.100000,-0.100000)"
fill="#000000" stroke="none">
<path d="M553 15220 c-247 -64 -436 -240 -519 -485 -24 -68 -28 -98 -30 -205
-2 -147 15 -230 71 -342 67 -133 136 -209 290 -315 206 -144 490 -348 493
-355 2 -4 8 -8 12 -8 5 0 38 -21 74 -47 67 -50 110 -81 366 -263 85 -60 235
-167 334 -238 98 -70 195 -139 215 -153 221 -157 721 -514 739 -527 27 -21 45
-34 262 -187 170 -120 209 -148 315 -225 28 -20 306 -219 618 -441 781 -555
726 -514 743 -557 8 -20 19 -46 24 -57 5 -11 88 -216 183 -455 96 -239 177
-444 182 -455 5 -11 9 -22 10 -25 2 -6 23 -59 32 -80 3 -8 7 -19 9 -25 3 -12
130 -327 149 -370 7 -16 43 -106 79 -200 37 -93 75 -190 86 -215 11 -25 56
-137 100 -250 44 -113 85 -214 90 -225 5 -11 32 -78 60 -150 28 -71 55 -139
60 -150 5 -11 131 -326 280 -700 148 -374 275 -688 280 -697 6 -10 10 -22 10
-28 0 -6 9 -29 19 -53 11 -23 31 -73 46 -112 15 -38 33 -83 40 -100 7 -16 20
-50 30 -75 17 -43 36 -90 55 -135 4 -11 34 -85 65 -165 50 -127 86 -217 115
-285 5 -11 137 -344 295 -740 158 -396 442 -1107 632 -1580 189 -473 346 -864
347 -870 2 -5 8 -23 15 -40 7 -16 30 -75 52 -130 57 -143 67 -163 112 -230
140 -209 384 -331 637 -320 99 5 122 9 209 37 129 42 259 135 345 247 54 70
82 126 146 288 28 70 55 137 60 148 5 11 111 277 236 590 124 314 232 584 239
600 7 17 97 242 200 500 102 259 190 479 195 490 5 11 23 56 40 100 17 44 37
94 44 110 7 17 176 440 376 940 199 501 366 919 371 930 12 27 209 517 213
530 2 6 8 21 13 35 6 14 59 147 118 295 59 149 113 284 120 300 7 17 43 107
80 200 37 94 73 184 81 200 7 17 70 174 139 350 70 176 175 442 235 590 60
149 215 538 345 865 201 504 242 599 269 622 24 21 489 355 816 585 25 18 84
61 132 95 48 35 299 214 558 398 259 184 525 375 593 423 137 98 328 234 361
257 50 34 1145 816 1191 850 48 36 249 178 465 330 177 125 252 207 316 346
54 115 67 189 61 334 -6 136 -22 202 -75 305 -89 174 -240 300 -437 367 l-70
23 -7995 2 c-7766 1 -7997 1 -8067 -17z"/>
</g>
</svg>
